<?xml version="1.0" encoding="UTF-8" standalone="no"?><svg xmlns="http://www.w3.org/2000/svg" xmlns:xlink="http://www.w3.org/1999/xlink" contentScriptType="application/ecmascript" contentStyleType="text/css" height="308px" preserveAspectRatio="none" style="width:223px;height:308px;" version="1.1" viewBox="0 0 223 308" width="223px" zoomAndPan="magnify"><defs><filter height="300%" id="f5mf7xifmw7bb" width="300%" x="-1" y="-1"><feGaussianBlur result="blurOut" stdDeviation="2.0"/><feColorMatrix in="blurOut" result="blurOut2" type="matrix" values="0 0 0 0 0 0 0 0 0 0 0 0 0 0 0 0 0 0 .4 0"/><feOffset dx="4.0" dy="4.0" in="blurOut2" result="blurOut3"/><feBlend in="SourceGraphic" in2="blurOut3" mode="normal"/></filter></defs><g><!--MD5=[8bb537784d06e79d94fe3572ca2e31fc]
class StrategyInterface--><rect fill="#FEFECE" filter="url(#f5mf7xifmw7bb)" height="60.9551" id="StrategyInterface" style="stroke: #A80036; stroke-width: 1.5;" width="128" x="45" y="116"/><ellipse cx="60" cy="132" fill="#B4A7E5" rx="11" ry="11" style="stroke: #A80036; stroke-width: 1.0;"/><path d="M56.4277,128.2651 L56.4277,126.1069 L63.8071,126.1069 L63.8071,128.2651 L61.3418,128.2651 L61.3418,136.3418 L63.8071,136.3418 L63.8071,138.5 L56.4277,138.5 L56.4277,136.3418 L58.8931,136.3418 L58.8931,128.2651 Z "/><text fill="#000000" font-family="sans-serif" font-size="12" font-style="italic" lengthAdjust="spacingAndGlyphs" textLength="96" x="74" y="136.5352">StrategyInterface</text><line style="stroke: #A80036; stroke-width: 1.5;" x1="46" x2="172" y1="148" y2="148"/><line style="stroke: #A80036; stroke-width: 1.5;" x1="46" x2="172" y1="156" y2="156"/><text fill="#000000" font-family="sans-serif" font-size="11" lengthAdjust="spacingAndGlyphs" textLength="27" x="51" y="170.6348">exe()</text><!--MD5=[fb2c36b2228036912ded869496673559]
class StrategyA--><rect fill="#FEFECE" filter="url(#f5mf7xifmw7bb)" height="60.9551" id="StrategyA" style="stroke: #A80036; stroke-width: 1.5;" width="86" x="6" y="237"/><ellipse cx="21" cy="253" fill="#ADD1B2" rx="11" ry="11" style="stroke: #A80036; stroke-width: 1.0;"/><path d="M23.4731,259.1431 Q22.8921,259.4419 22.2529,259.5913 Q21.6138,259.7407 20.9082,259.7407 Q18.4014,259.7407 17.0815,258.0889 Q15.7617,256.437 15.7617,253.3159 Q15.7617,250.1865 17.0815,248.5347 Q18.4014,246.8828 20.9082,246.8828 Q21.6138,246.8828 22.2612,247.0322 Q22.9087,247.1816 23.4731,247.4805 L23.4731,250.2031 Q22.8423,249.6221 22.2488,249.3523 Q21.6553,249.0825 21.0244,249.0825 Q19.6797,249.0825 18.9949,250.1492 Q18.3101,251.2158 18.3101,253.3159 Q18.3101,255.4077 18.9949,256.4744 Q19.6797,257.541 21.0244,257.541 Q21.6553,257.541 22.2488,257.2712 Q22.8423,257.0015 23.4731,256.4204 Z "/><text fill="#000000" font-family="sans-serif" font-size="12" lengthAdjust="spacingAndGlyphs" textLength="54" x="35" y="257.5352">StrategyA</text><line style="stroke: #A80036; stroke-width: 1.5;" x1="7" x2="91" y1="269" y2="269"/><line style="stroke: #A80036; stroke-width: 1.5;" x1="7" x2="91" y1="277" y2="277"/><text fill="#000000" font-family="sans-serif" font-size="11" lengthAdjust="spacingAndGlyphs" textLength="27" x="12" y="291.6348">exe()</text><!--MD5=[5225eab3c9fb4b6b2d3119e6d561acff]
class StrategyB--><rect fill="#FEFECE" filter="url(#f5mf7xifmw7bb)" height="60.9551" id="StrategyB" style="stroke: #A80036; stroke-width: 1.5;" width="85" x="127.5" y="237"/><ellipse cx="142.5" cy="253" fill="#ADD1B2" rx="11" ry="11" style="stroke: #A80036; stroke-width: 1.0;"/><path d="M144.9731,259.1431 Q144.3921,259.4419 143.7529,259.5913 Q143.1138,259.7407 142.4082,259.7407 Q139.9014,259.7407 138.5815,258.0889 Q137.2617,256.437 137.2617,253.3159 Q137.2617,250.1865 138.5815,248.5347 Q139.9014,246.8828 142.4082,246.8828 Q143.1138,246.8828 143.7612,247.0322 Q144.4087,247.1816 144.9731,247.4805 L144.9731,250.2031 Q144.3423,249.6221 143.7488,249.3523 Q143.1553,249.0825 142.5244,249.0825 Q141.1797,249.0825 140.4949,250.1492 Q139.8101,251.2158 139.8101,253.3159 Q139.8101,255.4077 140.4949,256.4744 Q141.1797,257.541 142.5244,257.541 Q143.1553,257.541 143.7488,257.2712 Q144.3423,257.0015 144.9731,256.4204 Z "/><text fill="#000000" font-family="sans-serif" font-size="12" lengthAdjust="spacingAndGlyphs" textLength="53" x="156.5" y="257.5352">StrategyB</text><line style="stroke: #A80036; stroke-width: 1.5;" x1="128.5" x2="211.5" y1="269" y2="269"/><line style="stroke: #A80036; stroke-width: 1.5;" x1="128.5" x2="211.5" y1="277" y2="277"/><text fill="#000000" font-family="sans-serif" font-size="11" lengthAdjust="spacingAndGlyphs" textLength="27" x="133.5" y="291.6348">exe()</text><!--MD5=[ff4900a2ffba147620c9a9ae24f627bf]
class StrategyContext--><rect fill="#FEFECE" filter="url(#f5mf7xifmw7bb)" height="48" id="StrategyContext" style="stroke: #A80036; stroke-width: 1.5;" width="122" x="48" y="8"/><ellipse cx="63" cy="24" fill="#ADD1B2" rx="11" ry="11" style="stroke: #A80036; stroke-width: 1.0;"/><path d="M65.4731,30.1431 Q64.8921,30.4419 64.2529,30.5913 Q63.6138,30.7407 62.9082,30.7407 Q60.4014,30.7407 59.0815,29.0889 Q57.7617,27.437 57.7617,24.3159 Q57.7617,21.1865 59.0815,19.5347 Q60.4014,17.8828 62.9082,17.8828 Q63.6138,17.8828 64.2612,18.0322 Q64.9087,18.1816 65.4731,18.4805 L65.4731,21.2031 Q64.8423,20.6221 64.2488,20.3523 Q63.6553,20.0825 63.0244,20.0825 Q61.6797,20.0825 60.9949,21.1492 Q60.3101,22.2158 60.3101,24.3159 Q60.3101,26.4077 60.9949,27.4744 Q61.6797,28.541 63.0244,28.541 Q63.6553,28.541 64.2488,28.2712 Q64.8423,28.0015 65.4731,27.4204 Z "/><text fill="#000000" font-family="sans-serif" font-size="12" lengthAdjust="spacingAndGlyphs" textLength="90" x="77" y="28.5352">StrategyContext</text><line style="stroke: #A80036; stroke-width: 1.5;" x1="49" x2="169" y1="40" y2="40"/><line style="stroke: #A80036; stroke-width: 1.5;" x1="49" x2="169" y1="48" y2="48"/><!--MD5=[89bac89c6d55d4a46134a9c275669cd3]
reverse link StrategyInterface to StrategyA--><path d="M84.84,195.42 C77.8,209.39 70.3,224.25 64,236.74 " fill="none" id="StrategyInterface&lt;-StrategyA" style="stroke: #A80036; stroke-width: 1.0; stroke-dasharray: 7.0,7.0;"/><polygon fill="none" points="78.76,191.93,94.01,177.22,91.26,198.23,78.76,191.93" style="stroke: #A80036; stroke-width: 1.0;"/><!--MD5=[ecb4d1a4ee26ab4c7200de81e252046e]
reverse link StrategyInterface to StrategyB--><path d="M133.56,195.42 C140.72,209.39 148.34,224.25 154.75,236.74 " fill="none" id="StrategyInterface&lt;-StrategyB" style="stroke: #A80036; stroke-width: 1.0; stroke-dasharray: 7.0,7.0;"/><polygon fill="none" points="127.13,198.21,124.24,177.22,139.59,191.83,127.13,198.21" style="stroke: #A80036; stroke-width: 1.0;"/><!--MD5=[60c281601cc82a618331860d7416146d]
reverse link StrategyContext to StrategyInterface--><path d="M109,69.07 C109,84.1 109,101.35 109,115.65 " fill="none" id="StrategyContext&lt;-StrategyInterface" style="stroke: #A80036; stroke-width: 1.0;"/><polygon fill="#A80036" points="109,56.04,105,62.04,109,68.04,113,62.04,109,56.04" style="stroke: #A80036; stroke-width: 1.0;"/><!--MD5=[e44f69bda0bd3fd086dc094385ab7549]
@startuml
interface StrategyInterface {
  exe()
} 
StrategyA : exe()
StrategyB : exe()

StrategyInterface <|.. StrategyA
StrategyInterface <|.. StrategyB

StrategyContext *- - StrategyInterface

@enduml

PlantUML version 1.2020.05(Fri Mar 20 05:17:32 CST 2020)
(GPL source distribution)
Java Runtime: OpenJDK Runtime Environment
JVM: OpenJDK 64-Bit Server VM
Java Version: 13.0.2+8
Operating System: Mac OS X
Default Encoding: UTF-8
Language: zh
Country: CN
--></g></svg>